<?xml version="1.0" standalone="no"?>
<!DOCTYPE svg PUBLIC "-//W3C//DTD SVG 1.1//EN" "http://www.w3.org/Graphics/SVG/1.1/DTD/svg11.dtd" >
<svg xmlns="http://www.w3.org/2000/svg">
<metadata>
This is a custom SVG webfont generated by Font Squirrel.
Copyright   : Digitized data copyright C 19931997 The Monotype Corporation All rights reserved
Designer    : Steven R Matteson
Foundry     : Monotype Typography
Foundry URL : httpwwwmonotypecom
</metadata>
<defs>
<font id="webfont3QB3yk9l" horiz-adv-x="1228" >
<font-face units-per-em="2048" ascent="1638" descent="-410" />
<missing-glyph horiz-adv-x="500" />
<glyph unicode=" " />
<glyph unicode="!" d="M479 104q0 53 35 89q37 37 88 36.5t88 -37t37 -88.5t-37 -92q-37 -39 -88 -39t-88 39q-35 37 -35 92zM508 952v459h180v-459l-47 -528h-86z" />
<glyph unicode="&#x22;" d="M356 1171v240h154v-240l-37 -280h-80zM719 1171v240h153v-240l-36 -280h-80z" />
<glyph unicode="#" d="M88 397v131h219l76 359h-295v131h322l84 393h141l-84 -393h268l84 393h141l-83 -393h186v-131h-213l-76 -359h289v-131h-318l-84 -397h-141l84 397h-268l-84 -397h-141l84 397h-191zM449 528h268l76 359h-269z" />
<glyph unicode="$" d="M227 1067q0 143 88 238q92 98 250 125v106h117v-98q138 0 270 -43l-37 -140q-123 43 -233 43v-489q184 -78 264 -180q76 -96 76 -223q0 -156 -90 -269q-88 -109 -250 -149v-129h-117v114h-8q-180 0 -319 72l34 141q160 -74 281 -73h12v583q-215 92 -276 181 q-62 89 -62 190zM387 1073q0 -120 178 -209v420q-178 -47 -178 -211zM682 131q180 63 180 254q0 86 -43 143q-43 59 -137 111v-508z" />
<glyph unicode="%" d="M47 1104q0 145 76 239.5t207 94.5q133 0 207 -92q76 -94 75.5 -242t-75.5 -242q-74 -92 -207 -92q-129 0 -207 94q-76 90 -76 240zM168 0l745 1411h140l-746 -1411h-139zM190 1104q0 -213 139.5 -213t139.5 213t-139.5 213t-139.5 -213zM614 307.5q0 145.5 76 239.5 t207 94q135 0 209 -92t74 -242q0 -152 -76 -241q-76 -92 -207 -92.5t-207 94t-76 240zM758 307q0 -213 139 -213t139 213t-139 213t-139 -213z" />
<glyph unicode="&#x26;" d="M80 365q0 109 63 202q68 98 240 217q-166 195 -166 340q0 141 92 227.5t234 86.5q131 0 217 -74q84 -72 84 -207q0 -98 -58 -182q-59 -88 -217 -203l295 -364q70 180 101 241q35 70 96 119t156 49h8v-137h-8q-61 0 -117 -66q-55 -63 -148 -317q74 -89 117 -129 q41 -39 94 -39q25 0 64 6v-127q-43 -18 -109 -18q-52 0 -104 37q-47 33 -135 147q-158 -201 -377 -201q-178 0 -299 113q-123 115 -123 279zM244 371q0 -111 78 -185q80 -76 184 -75q166 0 289 165l-336 414q-119 -88 -166 -158q-49 -73 -49 -161zM362 1124q0 -111 134 -258 q125 90 166 146q45 63 45 133q0 78 -48 119q-45 39 -114 39q-78 0 -131 -48q-52 -45 -52 -131z" />
<glyph unicode="'" d="M539 1171v240h153v-240l-37 -280h-80z" />
<glyph unicode="(" d="M440 571q0 256 115 473q117 221 342 392l61 -86q-182 -162 -264 -344q-80 -178 -80 -433q0 -262 84 -442q86 -182 260 -340l-61 -86q-223 168 -340 393q-117 224 -117 473z" />
<glyph unicode=")" d="M270 -209q180 160 262 344q82 186 82 438q0 260 -84 441q-82 176 -260 336l62 86q221 -168 340 -392q117 -221 116 -473q0 -249 -116 -473q-117 -225 -340 -393z" />
<glyph unicode="*" d="M260 858l252 164l-252 164l59 100l240 -160v285h111v-283l237 158l60 -100l-248 -164l248 -164l-60 -100l-237 157v-286h-111v286l-240 -159z" />
<glyph unicode="+" d="M141 657v131h410v410h131v-410h405v-131h-405v-409h-131v409h-410z" />
<glyph unicode="," d="M494 -168q123 61 122 141q-52 6 -86 43q-35 39 -34 84q0 53 32 86q35 35 84 35q57 0 97 -45q41 -47 41 -110q0 -195 -218 -306z" />
<glyph unicode="-" d="M307 487v152h594v-152h-594z" />
<glyph unicode="." d="M485 104q0 53 35 89q37 37 88 36.5t88 -37t37 -88t-37 -92.5q-37 -39 -88 -39t-88 39q-35 37 -35 92z" />
<glyph unicode="/" d="M215 -27l610 1465h150l-613 -1465h-147z" />
<glyph unicode="0" d="M147 705q0 340 117 536.5t348 196.5q225 0 344 -193q121 -195 121 -540q0 -338 -116.5 -535t-348.5 -197q-223 0 -344 193t-121 539zM322 705q0 -303 71 -447q70 -141 219.5 -141t218.5 141q72 143 72 447q0 309 -71.5 448t-219.5 139q-150 0 -219 -143 q-71 -147 -71 -444zM461 705q0 66 41 106q43 43 106.5 43t106.5 -43t43 -106q0 -65 -43 -111q-43 -47 -107 -47q-61 0 -104 47q-43 46 -43 111z" />
<glyph unicode="1" d="M276 0v143h299v1096l-282 -141v164l305 157h141v-1276h279v-143h-742z" />
<glyph unicode="2" d="M205 0v119q276 309 383 440q84 104 143 236q55 123 55 245q0 119 -71.5 186.5t-200.5 67.5q-100 0 -266 -61l-23 141q147 63 316 64q190 0 305 -106.5t115 -284.5q0 -123 -60 -252q-57 -123 -151 -240q-92 -114 -363 -412h594v-143h-776z" />
<glyph unicode="3" d="M199 47l32 135q141 -66 275 -65q129 0 219 79.5t90 204.5q0 123 -96 199q-100 78 -258 78h-43v135h12q156 0 254 72q100 74 100 196q0 100 -71 156q-74 57 -199 57q-106 0 -244 -59l-22 141q135 61 274 62q188 0 311 -98.5t123 -256.5q0 -109 -75 -202q-74 -92 -179 -117 v-6q131 -37 207 -131q78 -96 78 -215q0 -184 -145.5 -311.5t-341.5 -127.5q-169 0 -301 74z" />
<glyph unicode="4" d="M121 326v125l557 960h221v-942h174v-143h-174v-326h-164v326h-614zM287 469h448v780z" />
<glyph unicode="5" d="M225 35l33 139q133 -57 281 -57q129 0 209 84q80 82 79 231q0 137 -75 217q-74 76 -193 76q-90 0 -170 -33l-98 45v674h645v-143h-502v-426q68 18 133 18q199 0 315.5 -123t116.5 -305q0 -195 -135 -326q-137 -133 -329 -133q-183 1 -310 62z" />
<glyph unicode="6" d="M188 688q0 322 138 535q137 215 376 215q166 0 285 -49l-26 -146q-135 51 -254 51q-162 0 -254 -155q-90 -154 -91 -404q131 106 287 107q178 0 299 -115q119 -113 119 -295q0 -203 -106 -330q-109 -129 -283 -129q-227 0 -358.5 207t-131.5 508zM367 594 q0 -182 86 -329.5t213 -147.5q109 0 168 80q59 82 59 221q0 129 -65.5 204.5t-182.5 75.5q-153 0 -278 -104z" />
<glyph unicode="7" d="M199 1268v143h837v-117l-559 -1294h-168l551 1268h-661z" />
<glyph unicode="8" d="M164 393q0 135 82 236q84 102 229 145q-121 31 -188 115q-70 84 -70 192q0 133 109 246q109 111 284 111t289 -111q115 -111 115 -246q0 -102 -72 -190q-70 -86 -186 -117q143 -43 223 -143q80 -102 80 -236q0 -195 -129 -309q-127 -113 -316 -113q-197 0 -323.5 115 t-126.5 305zM336 401q0 -129 84 -206.5t194 -77.5q117 0 195 76q80 77 80 208q0 96 -55.5 176t-223.5 125q-274 -80 -274 -301zM379 1073q0 -59 24 -102q27 -45 62 -72q37 -27 84 -43q43 -14 61 -14q4 0 47 12q49 14 74 29q37 23 57 45q27 31 41 63q16 39 17 82 q0 94 -70 160q-66 63 -166 63q-94 0 -164 -65q-67 -64 -67 -158z" />
<glyph unicode="9" d="M178 981q0 193 115 326t295 133q223 0 346 -203t123 -512q0 -311 -145.5 -530.5t-389.5 -219.5q-166 0 -284 50l26 145q135 -51 254 -51q166 0 266 162q98 160 99 397q-121 -106 -287 -107q-178 0 -299 115q-119 113 -119 295zM352 995q0 -123 68 -202q66 -78 180 -78 q154 0 266 94l13 10q0 190 -76 333.5t-203 143.5q-113 0 -180 -84q-68 -82 -68 -217z" />
<glyph unicode=":" d="M487 102.5q0 49.5 35 84t84 34.5q51 0 86 -34.5t35 -84t-35 -84t-86 -34.5q-49 0 -84 34.5t-35 84zM487 938q0 49 35 84t84 35q51 0 86 -35t35 -84t-35 -84t-86 -35q-49 0 -84 35t-35 84z" />
<glyph unicode=";" d="M494 -168q123 61 122 141q-52 6 -86 43q-35 39 -34 84q0 53 32 86q35 35 84 35q57 0 97 -45q41 -47 41 -110q0 -195 -218 -306zM496 938q0 49 34.5 84t83.5 35q51 0 86 -35t35 -84t-34.5 -84t-86.5 -35q-49 0 -83.5 35t-34.5 84z" />
<glyph unicode="&#x3c;" d="M227 664v120l748 445v-144l-600 -366l600 -357v-147z" />
<glyph unicode="=" d="M141 457v131h946v-131h-946zM141 858v131h946v-131h-946z" />
<glyph unicode="&#x3e;" d="M266 215v147l600 357l-600 366v144l748 -445v-120z" />
<glyph unicode="?" d="M240 1358q178 80 317 80q190 0 292.5 -84t102.5 -252q0 -172 -223 -357q-98 -80 -119 -106q-23 -29 -35 -65.5t-12 -94.5v-55h-137v57q0 172 111 271l133 116q66 55 94 109q29 51 29 119q0 104 -66 159q-63 55 -180 56q-104 0 -260 -74zM389 104q0 53 35 89 q37 37 88 36.5t88 -37t37 -88t-37 -92.5q-37 -39 -88 -39q-49 0 -86 39q-37 41 -37 92z" />
<glyph unicode="@" d="M98 567q0 401 150 631q152 231 391 232q223 0 365 -183q141 -181 141 -491q0 -230 -92 -381q-92 -152 -240 -152q-102 0 -129 119q-57 -119 -162 -119q-76 0 -127 80q-51 78 -51 209q0 203 86 338t215 135q51 0 103 -37l4 25h125q-59 -520 -60 -578q0 -27 12.5 -45 t28.5 -18q68 0 123 118.5t55 305.5q0 262 -108 418q-108 154 -289 153q-194 0 -313 -203q-119 -201 -119 -557q0 -285 121 -454.5t315 -169.5q158 0 303 69l23 -90q-152 -84 -326 -84q-243 0 -393 197q-152 198 -152 532zM471 526q0 -92 24.5 -143t63.5 -51q57 0 94 55 q35 53 39 78l41 375q-31 37 -82 37q-82 0 -131 -96.5t-49 -254.5z" />
<glyph unicode="A" d="M57 0l461 1411h197l461 -1411h-172l-156 494h-463l-158 -494h-170zM432 637h369l-185 584z" />
<glyph unicode="B" d="M209 0v1411h391q205 0 319.5 -90t114.5 -252q0 -101 -67 -178q-72 -80 -183 -113v-4q141 -34 222 -129q80 -96 79 -225q0 -190 -139 -305t-336 -115h-401zM373 143h186q163 0 258 74q96 74 96 203q0 139 -94 213t-272 74h-174v-564zM373 850h192q301 0 301 215 q0 98 -73 152q-72 51 -218 51h-202v-418z" />
<glyph unicode="C" d="M127 705q0 346 137 538q139 195 422 195q92 0 203 -27q96 -23 160 -68l-54 -129q-141 80 -309 80q-195 0 -291 -141q-94 -139 -94 -448q0 -588 385 -588q164 0 334 100l51 -129q-168 -115 -385 -115q-274 0 -416 189q-143 191 -143 543z" />
<glyph unicode="D" d="M209 0v1411h278q279 0 445 -188q166 -186 166 -518q0 -334 -170 -521q-170 -184 -434 -184h-285zM373 143h116q201 0 318 149.5t117 412t-117 413.5q-117 150 -318 150h-116v-1125z" />
<glyph unicode="E" d="M256 0v1411h731v-143h-567v-437h545v-143h-545v-545h573v-143h-737z" />
<glyph unicode="F" d="M256 0v1411h748v-143h-584v-461h532v-143h-532v-664h-164z" />
<glyph unicode="G" d="M127 705q0 348 137 540.5t422 192.5q92 0 203 -27q96 -23 160 -68l-54 -129q-141 80 -309 80q-193 0 -289 -143t-96 -446q0 -588 385 -588q145 0 219 61v348h-254v142h418v-568q-174 -127 -383 -127q-276 0 -418 187q-141 189 -141 545z" />
<glyph unicode="H" d="M209 0v1411h164v-567h483v567h164v-1411h-164v700h-483v-700h-164z" />
<glyph unicode="I" d="M287 0v143h243v1125h-243v143h641v-143h-234v-1125h234v-143h-641z" />
<glyph unicode="J" d="M156 45l49 131q123 -59 262 -59q125 0 180 65q55 63 55 205v1024h164v-1036q0 -190 -102 -297q-100 -104 -297 -105q-168 0 -311 72z" />
<glyph unicode="K" d="M209 0v1411h164v-676l626 676h189l-551 -596l569 -815h-207l-477 692l-149 -162v-530h-164z" />
<glyph unicode="L" d="M256 0v1411h164v-1268h604v-143h-768z" />
<glyph unicode="M" d="M172 0v1411h213l236 -643l235 643h213v-1411h-158v1210l-213 -579h-155l-213 579v-1210h-158z" />
<glyph unicode="N" d="M188 0v1411h183l508 -1104v1104h161v-1411h-182l-506 1114v-1114h-164z" />
<glyph unicode="O" d="M127 705q0 354 125 544q123 188 360 189q236 0 361 -186.5t125 -546.5q0 -356 -123 -543q-123 -188 -363 -189q-236 0 -360.5 187t-124.5 545zM301 705q0 -286 80 -437q80 -152 231 -151q311 0 312 588q0 590 -312 589q-152 0 -231.5 -153t-79.5 -436z" />
<glyph unicode="P" d="M256 0v1411h358q199 0 324 -102q123 -100 123 -280.5t-121 -287.5q-125 -109 -319 -108h-201v-633h-164zM420 776h178q289 0 289 242q0 115 -78 180q-82 70 -203 70h-186v-492z" />
<glyph unicode="Q" d="M127 705q0 354 125 544q123 188 360 189q236 0 361 -186.5t125 -546.5q0 -520 -260 -676q37 -145 141 -146q63 0 127 15l29 -131q-82 -27 -172 -27q-221 0 -285 240q-39 -6 -66 -7q-236 0 -360.5 187t-124.5 545zM301 705q0 -286 80 -437q80 -152 231 -151q311 0 312 588 q0 590 -312 589q-152 0 -231.5 -153t-79.5 -436z" />
<glyph unicode="R" d="M209 0v1411h399q201 0 317.5 -98.5t116.5 -270.5q0 -129 -86 -229t-233 -137l451 -676h-205l-414 641h-182v-641h-164zM373 784h207q133 0 211 70q82 72 81 178q0 236 -288 236h-211v-484z" />
<glyph unicode="S" d="M227 1067q0 174 125 272q126 98 320 99q143 0 280 -43l-37 -140q-126 43 -239 43q-127 0 -209 -59q-80 -58 -80 -166q0 -127 211 -225q143 -66 207 -100q55 -31 102 -76q53 -51 84 -117q31 -68 31 -149q0 -205 -139 -320q-137 -113 -326 -113q-180 0 -319 72l34 141 q160 -74 281 -73q139 0 225 73q84 72 84 199q0 95 -55 160q-57 66 -203 133q-158 74 -196 96q-49 29 -89 70q-43 47 -67 100q-25 55 -25 123z" />
<glyph unicode="T" d="M98 1278v133h1035v-133h-435v-1278h-163v1278h-437z" />
<glyph unicode="U" d="M209 440v971h164v-956q0 -338 245 -338q123 0 181 80q57 78 57 260v954h164v-967q0 -242 -100 -358q-98 -113 -302 -113q-409 0 -409 467z" />
<glyph unicode="V" d="M53 1411h172l387 -1221l389 1221h170l-460 -1411h-197z" />
<glyph unicode="W" d="M43 1411h162l119 -1147l208 694h164l209 -696l121 1149h160l-180 -1411h-152l-240 795l-239 -795h-156z" />
<glyph unicode="X" d="M86 0l451 719l-449 692h188l347 -559l350 559h180l-442 -692l452 -719h-182l-358 578l-355 -578h-182z" />
<glyph unicode="Y" d="M94 1411h185l337 -635l338 635h185l-441 -807v-604h-163v604z" />
<glyph unicode="Z" d="M182 0v115l668 1153h-639v143h829v-117l-671 -1151h659v-143h-846z" />
<glyph unicode="[" d="M522 -270v1681h389v-137h-233v-1409h233v-135h-389z" />
<glyph unicode="\" d="M213 1438h149l611 -1465h-148z" />
<glyph unicode="]" d="M279 -131h243v1407h-243v135h399v-1677h-399v135z" />
<glyph unicode="^" d="M111 788l448 748h121l444 -748h-143l-367 601l-356 -601h-147z" />
<glyph unicode="_" d="M0 -315h1229v-131h-1229v131z" />
<glyph unicode="`" d="M348 1466h225l199 -301h-113z" />
<glyph unicode="a" d="M215 268q0 77 31 135q33 61 92 100.5t145 63.5q82 23 203 33l176 14v50q0 268 -250 268q-59 0 -149 -25q-82 -23 -156 -61l-41 112q213 109 396 109q356 0 356 -377v-448q0 -125 26 -242h-155q-18 66 -19 168q-133 -195 -362 -195q-117 0 -205 82t-88 213zM379 279 q0 -70 49 -113t125 -43q83 0 166 49q78 47 143 137v189q-197 -16 -289 -35q-78 -14 -137 -62q-57 -44 -57 -122z" />
<glyph unicode="b" d="M215 0v1411h156v-504q55 76 141 117q90 43 186 43q182 0 283 -145q102 -150 102 -385q0 -238 -108 -402q-106 -162 -289 -162q-100 0 -182 47.5t-133 129.5v-150h-156zM371 319q41 -86 118 -147q76 -59 156 -59q127 0 201 120t74 295q0 182 -70 291q-72 113 -199 113 q-168 0 -280 -180v-433z" />
<glyph unicode="c" d="M176 520q0 246 148 398q147 150 387 149q158 0 299 -55l-41 -129q-141 49 -256 49q-172 0 -273 -111q-100 -109 -100 -301q0 -172 104 -293q104 -119 271 -118q133 0 272 51l27 -125q-135 -61 -299 -62q-246 0 -393 150q-146 147 -146 397z" />
<glyph unicode="d" d="M145 537q0 229 109 381q106 150 287 149q197 0 317 -160v504h156v-1411h-156v150q-51 -80 -137 -127q-90 -49 -189 -50q-178 0 -282.5 160t-104.5 404zM309 528q0 -182 70 -297q72 -119 194 -118q53 0 119 32q57 29 113 97q53 66 53 77v433q-111 180 -270 180 q-129 0 -203 -115q-76 -117 -76 -289z" />
<glyph unicode="e" d="M170 524q0 250 127 396q129 147 330 147q182 0 301 -137q121 -139 121 -365v-49h-715q0 -178 102.5 -292.5t251.5 -114.5q145 0 293 51l27 -125q-139 -61 -322 -62q-233 0 -375 150q-141 151 -141 401zM344 643h535q0 123 -76 205q-78 84 -170 84q-121 0 -201 -80 q-78 -78 -88 -209z" />
<glyph unicode="f" d="M223 907v135h262v35q0 199 68 279t235 80q104 0 240 -41l-41 -127q-119 33 -199 32q-86 0 -116 -47q-31 -45 -31 -192v-19h350v-135h-350v-907h-156v907h-262z" />
<glyph unicode="g" d="M178 -152q0 125 170 211q-141 63 -141 162q0 109 182 205q-84 53 -129 131t-45 172q0 147 100.5 241.5t249.5 94.5q111 0 195 -45l309 47v-152h-199q45 -78 45 -186q0 -139 -100 -240q-98 -98 -250 -98q-43 0 -61 2q-145 -70 -146 -125q0 -29 33 -49t92 -20l351 10 q125 0 194.5 -61.5t69.5 -172.5q0 -178 -158 -282q-157 -104 -369 -105q-174 0 -282 72q-111 73 -111 188zM324 -143q0 -61 67.5 -104.5t179.5 -43.5q154 0 262.5 67.5t108.5 170.5q0 104 -154 104q-51 0 -176 -6q-106 -4 -125 -4q-22 0 -67 -37q-51 -41 -72 -72 q-24 -36 -24 -75zM369 727q0 -90 57 -154q55 -61 139 -61t139.5 59.5t55.5 155.5q0 98 -53 158q-51 57 -142 57q-84 0 -139 -59q-57 -62 -57 -156z" />
<glyph unicode="h" d="M215 0v1411h156v-522q170 178 354 178q293 0 293 -354v-713h-156v668q0 139 -45 202q-43 61 -139 62q-144 0 -307 -178v-754h-156z" />
<glyph unicode="i" d="M295 907v135h463v-1042h-156v907h-307zM578 1329q0 43 32 76q31 31 72 31q45 0 75.5 -31t30.5 -76q0 -47 -30.5 -77.5t-75.5 -30.5q-41 0 -72 32q-32 37 -32 76z" />
<glyph unicode="j" d="M215 -371l41 127q119 -33 199 -32q86 0 116 47q31 45 31 192v944h-307v135h463v-1095q0 -193 -68 -277q-68 -82 -235 -82q-105 0 -240 41zM578 1329q0 43 32 76q31 31 72 31q45 0 75.5 -31t30.5 -76q0 -47 -30.5 -77.5t-75.5 -30.5q-41 0 -72 32q-32 37 -32 76z" />
<glyph unicode="k" d="M215 0v1411h156v-809l489 440h199l-475 -426l536 -616h-205l-442 518l-102 -88v-430h-156z" />
<glyph unicode="l" d="M244 1276v135h428v-1276h270v-135h-426v1276h-272z" />
<glyph unicode="m" d="M129 0v1042h150v-157q43 84 104 133t121 49q63 0 112 -49q51 -51 70 -133q43 84 104.5 133t120.5 49q188 0 189 -338v-729h-156v684q0 248 -92 248q-49 0 -104.5 -86t-55.5 -94v-752h-155v684q0 248 -93 248q-47 0 -102 -86q-57 -90 -57 -94v-752h-156z" />
<glyph unicode="n" d="M215 0v1042h156v-153q170 178 354 178q293 0 293 -354v-713h-156v668q0 139 -45 202q-43 61 -139 62q-144 0 -307 -178v-754h-156z" />
<glyph unicode="o" d="M145 522q0 244 127 396q125 150 342 149.5t342 -149.5q127 -152 127 -396q0 -246 -127 -397.5t-342 -151.5q-217 0 -342 150q-127 151 -127 399zM309 520q0 -172 80 -293q80 -119 225 -118q139 0 224 120q82 119 82 291q0 178 -80 295t-225.5 117t-225.5 -115 q-80 -113 -80 -297z" />
<glyph unicode="p" d="M215 -412v1454h156v-135q55 76 141 117q90 43 186 43q180 0 282.5 -149.5t102.5 -385.5q0 -238 -108 -399q-108 -160 -289 -160q-100 0 -182 47.5t-133 129.5v-562h-156zM371 319q41 -86 118 -147q76 -59 156 -59q125 0 201 118q74 117 74 293q0 180 -70 293 q-72 115 -199 115q-168 0 -280 -180v-433z" />
<glyph unicode="q" d="M145 530q0 233 108.5 385t287.5 152q197 0 317 -160v135h156v-1454h-156v562q-51 -80 -137 -127q-90 -49 -189 -50q-178 0 -282 156q-105 157 -105 401zM309 522q0 -182 70 -295q72 -115 194 -114q53 0 119 32q57 29 113 97q53 66 53 77v433q-111 180 -270 180 q-129 0 -203 -117q-76 -121 -76 -293z" />
<glyph unicode="r" d="M326 0v1042h155v-211q125 236 324 236q117 0 229 -53l-63 -150q-102 45 -178 45q-72 0 -136 -39q-66 -41 -121 -114.5t-55 -81.5v-674h-155z" />
<glyph unicode="s" d="M233 774q0 133 117 213t314 80q127 0 280 -43l-35 -131q-131 43 -247 43q-127 0 -201 -43t-74 -113q0 -43 35 -78q37 -37 135 -63l150 -43q96 -27 167 -70q61 -39 97 -98q33 -57 33 -133q0 -150 -125 -236t-318 -86q-195 0 -317 58l30 135q131 -61 281 -62q131 0 211 48 q82 49 82 129q0 51 -41 96t-191 90l-178 55q-57 18 -104 53q-53 39 -76 87q-25 49 -25 112z" />
<glyph unicode="t" d="M240 907v135h200v285h152v-285h354v-135h-354v-596q0 -95 43 -147q43 -53 113 -53q131 0 253 57l27 -121q-160 -72 -309 -72q-279 0 -279 295v637h-200z" />
<glyph unicode="u" d="M213 330v712h156v-667q0 -133 43 -198.5t141 -65.5q144 0 307 178v753h156v-1042h-156v154q-168 -178 -354 -179q-293 1 -293 355z" />
<glyph unicode="v" d="M135 1042h170l295 -829l295 829h170l-395 -1042h-142z" />
<glyph unicode="w" d="M115 1042h155q84 -737 86 -766l191 453h160l190 -450l84 763h160l-150 -1042h-119l-245 590l-246 -590h-119z" />
<glyph unicode="x" d="M145 0l371 522l-371 520h179l280 -405l285 405h166l-369 -514l369 -528h-176l-279 408l-289 -408h-166z" />
<glyph unicode="y" d="M117 -377l26 125q78 -25 136 -24q84 0 139 65q51 59 108 213l-391 1040h170l295 -831l295 831h170l-395 -1042q-86 -231 -170 -321.5t-193 -90.5q-92 0 -190 35z" />
<glyph unicode="z" d="M203 0v84l594 821h-580v137h787v-77l-594 -828h594v-137h-801z" />
<glyph unicode="{" d="M358 453v163q109 0 158 74t49 260v97q0 211 64 286q66 78 207 78h79v-131h-30q-92 0 -129 -41q-37 -40 -37 -190v-64q0 -211 -47 -305q-49 -98 -164 -145q117 -51 164 -145.5t47 -305.5v-64q0 -151 37 -190q37 -41 129 -41h30v-131h-79q-141 0 -207 78q-63 76 -64 287v96 q0 186 -49 260t-158 74z" />
<glyph unicode="|" d="M532 -383v1794h154v-1794h-154z" />
<glyph unicode="}" d="M309 -211h31q92 0 129 41q37 40 37 190v64q0 207 49 305q47 96 162 146q-113 45 -162 145q-49 98 -49 305v64q0 151 -37 190q-37 41 -129 41h-31v131h80q141 0 207 -78q63 -76 63 -286v-97q0 -169 43 -252q43 -82 164 -82v-163q-109 0 -158 -74t-49 -260v-96 q0 -211 -63 -287q-66 -78 -207 -78h-80v131z" />
<glyph unicode="~" d="M59 399v144q156 131 306 131q84 0 258 -78t245 -78q119 0 287 137v-143q-152 -131 -299 -131q-82 0 -256 78q-178 78 -250 78q-117 -1 -291 -138z" />
<glyph unicode="&#xa0;" />
<glyph unicode="&#xa2;" d="M197 520q0 215 116.5 362.5t325.5 178.5v186h117v-180q145 -4 274 -55l-41 -129q-123 43 -233 49v-823q129 6 252 51l26 -125q-125 -57 -278 -62v-180h-117v187q-209 31 -326 176q-116 143 -116 364zM360 520q0 -145 74 -255.5t205 -145.5v803q-135 -31 -207 -135.5 t-72 -266.5z" />
<glyph unicode="&#xa3;" d="M162 631v133h196v170q0 258 95 379q96 123 299 123q152 0 266 -54l-37 -133q-113 43 -227 43q-121 0 -176.5 -86t-55.5 -274v-168h252v-133h-252v-199q0 -117 -61 -180q96 0 225 -64q113 -53 178 -53q123 0 248 111v-168q-114 -98 -258 -98q-80 0 -205 61 q-113 55 -180 55q-127 0 -258 -106v157q111 86 129 147.5t18 119.5v217h-196z" />
<glyph unicode="&#xa5;" d="M94 1411h185l337 -639l338 639h185l-389 -717h340v-131h-392v-143h392v-131h-392v-293h-163v293h-392v131h392v143h-392v131h340z" />
<glyph unicode="&#xa9;" d="M10 836q0 250 176 426t428 176t428.5 -176.5t176.5 -425.5q0 -252 -177 -428q-178 -178 -427.5 -178.5t-428.5 178.5q-176 176 -176 428zM119 835.5q0 -204.5 145.5 -350t349.5 -145.5q203 0 353 145q145 143 145 350t-145 351q-150 145 -353 145q-205 0 -350 -145.5 t-145 -350zM346 838q0 154 76 241.5t209 87.5q88 0 180 -49l-35 -94q-68 37 -145 37q-82 0 -119 -53q-39 -55 -39 -170q0 -221 158 -222q78 0 160 54l32 -92q-92 -68 -192 -68q-131 0 -207 92q-78 95 -78 236z" />
<glyph unicode="&#xad;" d="M307 487v152h594v-152h-594z" />
<glyph unicode="&#xae;" d="M10 836q0 250 176 426t428 176t428.5 -176.5t176.5 -425.5q0 -252 -177 -428q-178 -178 -427.5 -178.5t-428.5 178.5q-176 176 -176 428zM119 835.5q0 -204.5 145.5 -350t349.5 -145.5q203 0 353 145q145 143 145 350t-145 351q-150 145 -353 145q-205 0 -350 -145.5 t-145 -350zM403 512v653h205q100 0 170 -53q66 -51 66 -139q0 -123 -125 -172l203 -289h-144l-170 258h-78v-258h-127zM530 874h68q123 0 123 95q0 90 -117 90h-74v-185z" />
<glyph unicode="&#xb4;" d="M459 1165l198 301h226l-312 -301h-112z" />
<glyph unicode="&#x2000;" horiz-adv-x="768" />
<glyph unicode="&#x2001;" horiz-adv-x="1536" />
<glyph unicode="&#x2002;" horiz-adv-x="768" />
<glyph unicode="&#x2003;" horiz-adv-x="1536" />
<glyph unicode="&#x2004;" horiz-adv-x="512" />
<glyph unicode="&#x2005;" horiz-adv-x="382" />
<glyph unicode="&#x2006;" horiz-adv-x="256" />
<glyph unicode="&#x2007;" horiz-adv-x="256" />
<glyph unicode="&#x2008;" horiz-adv-x="190" />
<glyph unicode="&#x2009;" horiz-adv-x="305" />
<glyph unicode="&#x200a;" horiz-adv-x="83" />
<glyph unicode="&#x2010;" d="M307 487v152h594v-152h-594z" />
<glyph unicode="&#x2011;" d="M307 487v152h594v-152h-594z" />
<glyph unicode="&#x2012;" d="M307 487v152h594v-152h-594z" />
<glyph unicode="&#x2013;" d="M184 487v152h820v-152h-820z" />
<glyph unicode="&#x2014;" d="M0 487v152h1229v-152h-1229z" />
<glyph unicode="&#x2018;" d="M479 1135q0 195 217 305l39 -72q-123 -61 -123 -141q52 -6 86 -43q35 -39 35 -84q0 -53 -33 -86q-35 -35 -84 -35q-57 0 -96 45q-41 48 -41 111z" />
<glyph unicode="&#x2019;" d="M477 1049q123 61 123 141q-55 6 -88 43q-33 35 -33 84q0 53 33 86q35 35 84 35q57 0 96 -45q41 -47 41 -111q0 -195 -217 -305z" />
<glyph unicode="&#x201c;" d="M293 1135q0 195 217 305l39 -72q-123 -61 -123 -141q52 -6 86 -43q35 -39 35 -84q0 -53 -33 -86q-35 -35 -84 -35q-57 0 -96 45q-41 48 -41 111zM659 1135q0 195 218 305l38 -72q-123 -61 -122 -141q52 -6 86 -43q35 -39 34 -84q0 -53 -32 -86q-35 -35 -84 -35 q-57 0 -97 45q-41 48 -41 111z" />
<glyph unicode="&#x201d;" d="M299 1049q123 61 123 141q-52 6 -86 43q-35 39 -35 84q0 53 33 86q35 35 84 35q57 0 96 -45q41 -47 41 -111q0 -195 -217 -305zM666 1049q123 61 122 141q-52 6 -86 43q-35 39 -34 84q0 51 34.5 86t81.5 35q57 0 97 -45q41 -47 41 -111q0 -195 -217 -305z" />
<glyph unicode="&#x2022;" d="M358 698q0 104 74 179q76 76 180 75q102 0 178 -75.5t76 -178.5q0 -104 -75 -180q-74 -74 -179 -74q-106 0 -180 74t-74 180z" />
<glyph unicode="&#x2026;" d="M80 104q0 53 35 89q37 37 88 36.5t88 -37t37 -88t-37 -92.5q-37 -39 -88 -39t-88 39q-35 37 -35 92zM494 104q0 49 34 89q33 37 88 36q51 0 88 -36.5t37 -88t-36 -92.5q-37 -39 -89 -39q-49 0 -86 39q-36 41 -36 92zM901 104q0 53 35 89q37 37 88 36.5t88 -37t37 -88 t-37 -92.5q-37 -39 -88 -39q-49 0 -86 39q-37 41 -37 92z" />
<glyph unicode="&#x202f;" horiz-adv-x="305" />
<glyph unicode="&#x205f;" horiz-adv-x="382" />
<glyph unicode="&#x20ac;" d="M0 504l72 131h57q-2 14 -2 70q0 59 2 73h-129l72 131h69q80 528 545 529q92 0 203 -27q96 -23 160 -68l-54 -129q-141 80 -309 80q-317 0 -373 -385h703l-72 -131h-641q-2 -14 -2 -73q0 -55 2 -70h653l-71 -131h-570q61 -387 371 -387q164 0 334 100l51 -129 q-168 -115 -385 -115q-469 0 -545 531h-141z" />
<glyph unicode="&#x2122;" d="M16 1303v108h471v-108h-172v-635h-127v635h-172zM545 668v743h145l154 -364l162 364h153v-743h-131v549l-137 -310h-94l-131 310v-549h-121z" />
<glyph unicode="&#xe000;" horiz-adv-x="1040" d="M0 1040h1040v-1040h-1040v1040z" />
<glyph unicode="&#xfb01;" d="M29 907v135h241v35q0 199 68 279t235 80q104 0 240 -41l-41 -127q-119 33 -199 32q-86 0 -116 -47q-31 -45 -31 -192v-19h561v-1042h-156v907h-405v-907h-156v907h-241z" />
<glyph unicode="&#xfb02;" d="M29 907v135h241v35q0 197 72 277q74 82 246 82q49 0 114 -9l132 -16h153v-1411h-156v1272q-172 29 -243 28q-92 0 -127 -53t-35 -186v-19h281v-135h-281v-907h-156v907h-241z" />
<glyph unicode="&#xfb03;" horiz-adv-x="3686" d="M2753 907v135h463v-1042h-156v907h-307zM3036 1329q0 43 32 76q31 31 72 31q45 0 75.5 -31t30.5 -76q0 -47 -30.5 -77.5t-75.5 -30.5q-41 0 -72 32q-32 37 -32 76zM1452 907v135h262v35q0 199 68 279t235 80q104 0 240 -41l-41 -127q-119 33 -199 32q-86 0 -116 -47 q-31 -45 -31 -192v-19h350v-135h-350v-907h-156v907h-262zM223 907v135h262v35q0 199 68 279t235 80q104 0 240 -41l-41 -127q-119 33 -199 32q-86 0 -116 -47q-31 -45 -31 -192v-19h350v-135h-350v-907h-156v907h-262z" />
<glyph unicode="&#xfb04;" horiz-adv-x="3686" d="M2702 1276v135h428v-1276h270v-135h-426v1276h-272zM1452 907v135h262v35q0 199 68 279t235 80q104 0 240 -41l-41 -127q-119 33 -199 32q-86 0 -116 -47q-31 -45 -31 -192v-19h350v-135h-350v-907h-156v907h-262zM223 907v135h262v35q0 199 68 279t235 80q104 0 240 -41 l-41 -127q-119 33 -199 32q-86 0 -116 -47q-31 -45 -31 -192v-19h350v-135h-350v-907h-156v907h-262z" />
</font>
</defs>
</svg>
